<svg width="30" height="60" viewBox="0 0 30 60" fill="none" xmlns="http://www.w3.org/2000/svg">
<rect width="30" height="60" rx="8" fill="#101317"/>
<path d="M14.04 22.9334C14.1653 22.933 14.289 22.9612 14.4021 23.0161C14.5153 23.071 14.615 23.1511 14.6939 23.2505L18.7426 28.3929C18.8659 28.5462 18.9333 28.7386 18.9333 28.9371C18.9333 29.1356 18.8659 29.328 18.7426 29.4813L14.5514 34.6237C14.4091 34.7987 14.2046 34.9088 13.983 34.9297C13.7613 34.9506 13.5406 34.8806 13.3694 34.7351C13.1983 34.5897 13.0906 34.3806 13.0702 34.154C13.0497 33.9274 13.1182 33.7017 13.2605 33.5267L17.0074 28.9328L13.3862 24.339C13.2837 24.2132 13.2186 24.06 13.1986 23.8975C13.1786 23.7351 13.2045 23.5702 13.2733 23.4223C13.342 23.2744 13.4508 23.1498 13.5867 23.0631C13.7226 22.9765 13.8799 22.9315 14.04 22.9334Z" fill="white"/>
</svg>
